HIERARCHY
ROOT Hips
{
	OFFSET -0.001795 -0.223333 0.028219
	CHANNELS 6 Xposition Yposition Zposition Zrotation Yrotation Xrotation 
	JOINT LeftUpLeg
	{
		OFFSET 0.069520 -0.091406 -0.006815
		CHANNELS 3 Zrotation Yrotation Xrotation
		JOINT LeftLeg
		{
			OFFSET 0.034277 -0.375199 -0.004496
			CHANNELS 3 Zrotation Yrotation Xrotation
			JOINT LeftFoot
			{
				OFFSET -0.013596 -0.397961 -0.043693
				CHANNELS 3 Zrotation Yrotation Xrotation
				JOINT LeftToe
				{
					OFFSET 0.026358 -0.055791 0.119288
					CHANNELS 3 Zrotation Yrotation Xrotation
					End Site
					{
						OFFSET 0.000000 0.000000 0.000000
					}
				}
			}
		}
	}
	JOINT RightUpLeg
	{
		OFFSET -0.067670 -0.090522 -0.004320
		CHANNELS 3 Zrotation Yrotation Xrotation
		JOINT RightLeg
		{
			OFFSET -0.038290 -0.382569 -0.008850
			CHANNELS 3 Zrotation Yrotation Xrotation
			JOINT RightFoot
			{
				OFFSET 0.015774 -0.398415 -0.042312
				CHANNELS 3 Zrotation Yrotation Xrotation
				JOINT RightToe
				{
					OFFSET -0.025372 -0.048144 0.123348
					CHANNELS 3 Zrotation Yrotation Xrotation
					End Site
					{
						OFFSET 0.000000 0.000000 0.000000
					}
				}
			}
		}
	}
	JOINT Spine
	{
		OFFSET -0.002533 0.108963 -0.026696
		CHANNELS 3 Zrotation Yrotation Xrotation
		JOINT Spine1
		{
			OFFSET 0.005487 0.135180 0.001092
			CHANNELS 3 Zrotation Yrotation Xrotation
			JOINT Spine2
			{
				OFFSET 0.001457 0.052922 0.025425
				CHANNELS 3 Zrotation Yrotation Xrotation
				JOINT Neck
				{
					OFFSET -0.002778 0.213870 -0.042857
					CHANNELS 3 Zrotation Yrotation Xrotation
					JOINT Head
					{
						OFFSET 0.005152 0.064970 0.051349
						CHANNELS 3 Zrotation Yrotation Xrotation
						End Site
						{
							OFFSET 0.000000 0.000000 0.000000
						}
					}
				}
				JOINT LeftShoulder
				{
					OFFSET 0.078845 0.121749 -0.034090
					CHANNELS 3 Zrotation Yrotation Xrotation
					JOINT LeftArm
					{
						OFFSET 0.090977 0.030469 -0.008868
						CHANNELS 3 Zrotation Yrotation Xrotation
						JOINT LeftForeArm
						{
							OFFSET 0.259612 -0.012772 -0.027456
							CHANNELS 3 Zrotation Yrotation Xrotation
							JOINT LeftHand
							{
								OFFSET 0.249234 0.008986 -0.001171
								CHANNELS 3 Zrotation Yrotation Xrotation
								End Site
								{
									OFFSET 0.000000 0.000000 0.000000
								}
							}
						}
					}
				}
				JOINT RightShoulder
				{
					OFFSET -0.081759 0.118833 -0.038615
					CHANNELS 3 Zrotation Yrotation Xrotation
					JOINT RightArm
					{
						OFFSET -0.096012 0.032551 -0.009143
						CHANNELS 3 Zrotation Yrotation Xrotation
						JOINT RightForeArm
						{
							OFFSET -0.253742 -0.013329 -0.021401
							CHANNELS 3 Zrotation Yrotation Xrotation
							JOINT RightHand
							{
								OFFSET -0.255298 0.007772 -0.005559
								CHANNELS 3 Zrotation Yrotation Xrotation
								End Site
								{
									OFFSET 0.000000 0.000000 0.000000
								}
							}
						}
					}
				}
			}
		}
	}
}
MOTION
Frames: 6
Frame Time: 0.050000
0.000000 0.932690 0.000000 3.701420 20.033334 23.762747 1.869270 -2.817312 -24.021924 2.404195 -0.922608 9.309114 2.505168 16.497476 32.425111 0.000000 0.000000 0.000000 -1.917374 -0.057938 -42.961000 -3.250638 0.877596 18.867025 4.201625 7.309520 7.438237 0.000000 0.000000 0.000000 4.965466 -6.272112 35.457627 3.879656 -0.951107 -8.237699 1.651078 -0.257611 11.186275 -1.550157 3.189863 -22.899939 0.000000 0.000000 0.000000 6.929559 -26.818279 8.863936 -14.971652 -50.841360 0.566246 71.412790 -42.230861 -29.049988 0.000000 0.000000 0.000000 -15.716958 30.178186 7.620122 13.245943 47.421236 2.772916 -66.492329 25.548472 -11.183102 0.000000 0.000000 0.000000 
-0.000074 0.933710 0.003149 2.942341 19.644804 23.575921 2.409036 -2.777762 -24.289834 2.475202 -1.060195 10.550386 3.109690 16.863405 31.326666 0.000000 0.000000 0.000000 -0.655732 0.606274 -41.260580 -2.992267 0.816738 15.191231 2.974176 4.330734 8.877401 0.000000 0.000000 0.000000 5.156635 -5.765808 33.233197 3.032361 -0.735737 -7.230876 2.273482 0.434198 11.064123 -2.916580 4.044705 -25.673282 0.000000 0.000000 0.000000 5.432854 -23.750105 7.984990 -18.517913 -51.279313 1.949313 78.959756 -50.970672 -40.607714 0.000000 0.000000 0.000000 -13.943376 28.495457 7.612366 18.349983 49.497490 5.088140 -70.939691 25.348425 -11.529338 0.000000 0.000000 0.000000 
-0.000082 0.932116 0.006563 2.546890 18.960169 22.887735 2.453623 -2.580884 -23.280522 2.450266 -1.088019 10.926274 4.190442 17.557705 29.369667 0.000000 0.000000 0.000000 -0.269048 0.882167 -41.302831 -3.265683 0.916636 16.065575 3.706618 5.607960 9.178569 0.000000 0.000000 0.000000 6.227596 -5.706578 31.585499 0.783769 0.115294 -7.646186 3.190612 -1.095184 11.652350 -2.086247 3.410587 -24.330551 0.000000 0.000000 0.000000 3.112562 -23.247276 8.038818 -22.083112 -50.626805 3.548680 82.938552 -52.848180 -44.248679 0.000000 0.000000 0.000000 -11.266798 27.019102 7.840718 20.064863 48.253655 5.056941 -75.451820 32.410760 -18.038879 0.000000 0.000000 0.000000 
0.000045 0.933730 0.009962 2.612105 18.569032 22.475757 1.691872 -2.648684 -23.238088 3.666711 -1.574607 13.175756 2.711564 15.437633 26.944673 0.000000 0.000000 0.000000 -0.147446 1.027599 -40.223700 -3.510794 0.974057 15.013396 3.869598 5.707263 9.772207 0.000000 0.000000 0.000000 6.123838 -5.261602 30.118930 0.419929 0.210232 -7.055371 3.707398 -2.397843 11.768452 -3.983864 4.206296 -25.579705 0.000000 0.000000 0.000000 1.250148 -21.784530 7.706862 -24.810286 -48.610034 4.486300 89.410636 -54.147633 -49.822814 0.000000 0.000000 0.000000 -10.226931 25.752111 7.639529 21.388360 49.398125 5.543929 -80.599606 34.051369 -21.437109 0.000000 0.000000 0.000000 
0.000052 0.934225 0.013648 3.131983 19.049736 21.875327 1.367450 -2.531062 -22.111958 2.859454 -1.498750 13.779830 3.223934 15.492174 24.083882 0.000000 0.000000 0.000000 -0.632275 0.832072 -39.040390 -3.751485 1.008846 14.810967 4.006353 6.145385 9.481907 0.000000 0.000000 0.000000 6.163145 -5.023083 28.924043 1.206303 -0.093827 -6.708393 3.043518 -2.792345 11.379072 -3.416845 3.901809 -23.391248 0.000000 0.000000 0.000000 0.153194 -22.663216 8.083662 -26.397383 -48.259965 5.055661 94.376484 -53.189061 -52.828003 0.000000 0.000000 0.000000 -8.479306 24.985599 7.780089 21.149080 48.851406 5.276464 -83.397662 35.372621 -23.654982 0.000000 0.000000 0.000000 
0.000009 0.934670 0.016128 3.795753 19.707905 21.263683 1.109879 -2.436322 -21.167250 2.537728 -1.670028 15.519507 1.509263 12.163080 19.260485 0.000000 0.000000 0.000000 -1.120904 0.575131 -38.512772 -4.013757 1.059418 15.803159 3.851798 5.981373 9.199609 0.000000 0.000000 0.000000 6.277642 -4.833860 27.749206 1.416159 -0.187217 -6.349248 2.886085 -3.169316 11.877672 -3.395884 3.944644 -23.861984 0.000000 0.000000 0.000000 2.293907 -22.052309 7.634770 -26.589681 -51.061863 5.620781 98.258439 -49.198318 -51.885275 0.000000 0.000000 0.000000 -9.812157 23.768157 7.028337 20.979750 48.303852 5.187299 -85.735197 33.062773 -22.518792 0.000000 0.000000 0.000000 
